<mxfile host="app.diagrams.net" modified="2023-09-13T18:24:33.787Z" agent="Mozilla/5.0 (Windows NT 10.0; Win64; x64) AppleWebKit/537.36 (KHTML, like Gecko) Chrome/116.0.0.0 Safari/537.36 Edg/116.0.1938.76" etag="HQD5j7DLRqZ3xLpv06LM" version="21.7.5" type="github">
  <diagram name="Página-1" id="1wtzd-QisGfRLzjBp8vk">
    <mxGraphModel dx="1425" dy="1135" grid="1" gridSize="10" guides="1" tooltips="1" connect="1" arrows="1" fold="1" page="1" pageScale="1" pageWidth="827" pageHeight="1169" math="0" shadow="0">
      <root>
        <mxCell id="0" />
        <mxCell id="1" parent="0" />
        <mxCell id="jge-mMqtFyqHBy0lKX-n-1" value="Diagrama de Secuencia  de reportería: " style="text;html=1;align=center;verticalAlign=middle;resizable=0;points=[];autosize=1;strokeColor=none;fillColor=none;" vertex="1" parent="1">
          <mxGeometry y="8" width="230" height="30" as="geometry" />
        </mxCell>
      </root>
    </mxGraphModel>
  </diagram>
</mxfile>
